<svg width="84" height="52" fill="none" xmlns="http://www.w3.org/2000/svg"><path stroke="#1282A2" d="M.5.5h83v51H.5z"/><mask id="a" fill="#fff"><path fill-rule="evenodd" clip-rule="evenodd" d="m31.711 25.462 10.29 8.417 10.288-8.417 28.26 25.144H3.45l28.26-25.144Zm21.362-.64L83.177.196H.823L30.927 24.82 1.947 50.606l-1.124 1h82.354l-1.124-1-28.98-25.785Z"/></mask><path d="m42 33.879-.633.774.633.517.633-.517-.633-.774Zm-10.289-8.417.633-.774-.66-.54-.638.567.665.747Zm20.578 0 .665-.747-.638-.567-.66.54.633.774Zm28.26 25.144v1h2.628l-1.964-1.747-.664.747Zm-77.098 0-.664-.747-1.964 1.747h2.628v-1ZM83.177.196l.633.775 2.17-1.774h-2.803v1ZM53.073 24.822l-.633-.774-.907.742.875.78.665-.748ZM.823.197v-1h-2.802L.19.97.823.197ZM30.927 24.82l.665.747.876-.779-.908-.742-.633.774ZM1.947 50.606l.665.747-.665-.747Zm-1.124 1-.665-.747-1.963 1.747H.823v-1Zm82.354 0v1h2.628l-1.963-1.747-.665.747Zm-1.124-1 .665-.747-.665.747Zm-39.42-17.501-10.289-8.417-1.266 1.549 10.289 8.416 1.266-1.548Zm9.023-8.417-10.29 8.417 1.267 1.548 10.29-8.416-1.267-1.549Zm29.557 25.17-28.26-25.143-1.329 1.494 28.26 25.144 1.33-1.494ZM3.451 51.607H80.55v-2H3.45v2Zm27.595-26.89L2.786 49.858l1.33 1.494 28.26-25.144-1.33-1.494ZM82.544-.578 52.44 24.047l1.266 1.548L83.81.971 82.544-.577ZM.823 1.197h82.354v-2H.823v2Zm30.737 22.85L1.456-.577.19.97l30.104 24.624 1.266-1.548Zm-1.297.027L1.282 49.86l1.329 1.494 28.98-25.785-1.33-1.494ZM1.282 49.86l-1.125 1 1.33 1.494 1.124-1-1.33-1.494Zm-.46 2.747h1.504v-2H.823v2Zm1.504 0h79.346v-2H2.327v2Zm79.346 0h1.504v-2h-1.504v2Zm2.169-1.747-1.124-1-1.33 1.494 1.124 1 1.33-1.494Zm-1.124-1-28.98-25.785-1.33 1.494 28.98 25.785 1.33-1.494Z" fill="#1282A2" mask="url(#a)"/></svg>